<svg fill="none" height="60" viewBox="0 0 100 60" width="100" xmlns="http://www.w3.org/2000/svg"><rect fill="#0072ce" height="60" rx="4" width="100"/><g clip-rule="evenodd" fill="#fff" fill-rule="evenodd"><path d="m84.4075 34.6654h-3.533c-.3528 0-.5871.0132-.7845.1461-.2045.131-.2833.3254-.2833.5819 0 .3051.1727.5127.4239.6024.2045.071.4242.0917.7471.0917l1.0506.0281c1.0602.0261 1.7679.2078 2.1994.6509.0785.0617.1257.131.1798.2002zm0 5.3321c-.4709.6865-1.3885 1.0345-2.6306 1.0345h-3.7437v-1.7342h3.7285c.3699 0 .6287-.0486.7845-.2003.135-.1251.2292-.3068.2292-.5275 0-.2356-.0942-.4226-.2368-.5348-.1406-.1234-.3454-.1795-.683-.1795-1.8202-.0617-4.091.0561-4.091-2.5032 0-1.1731.7471-2.4079 2.7813-2.4079h3.8614v-1.6092h-3.5876c-1.0827 0-1.8692.2586-2.4262.6605v-.6605h-5.3065c-.8486 0-1.8447.2098-2.3158.6605v-.6605h-9.4761v.6605c-.7541-.5424-2.0267-.6605-2.614-.6605h-6.2505v.6605c-.5966-.5761-1.9235-.6605-2.7322-.6605h-6.9954l-1.6007 1.7272-1.4993-1.7272h-10.4497v11.285h10.253l1.6495-1.7545 1.5538 1.7545 6.32.0057v-2.6547h.6213c.8386.0129 1.8276-.0208 2.7001-.3968v3.0456h5.2129v-2.9412h.2514c.321 0 .3525.0131.3525.3329v2.6081h15.8357c1.0054 0 2.0563-.2566 2.6383-.7222v.7222h5.023c1.0452 0 2.066-.1461 2.8427-.5202zm-7.7327-3.231c.3775.3895.5798.8812.5798 1.7135 0 1.7399-1.0903 2.552-3.0453 2.552h-3.7757v-1.7342h3.7605c.3677 0 .6285-.0486.7919-.2003.1333-.1251.2289-.3068.2289-.5275 0-.2356-.1034-.4226-.2365-.5348-.1482-.1234-.3527-.1795-.6903-.1795-1.8129-.0617-4.0832.0561-4.0832-2.5032 0-1.1731.7392-2.4079 2.7715-2.4079h3.8863v1.7213h-3.556c-.3525 0-.5817.0132-.7767.1461-.2123.131-.2911.3254-.2911.5819 0 .3051.1803.5127.4242.6024.2045.071.4241.0917.7544.0917l1.0435.0281c1.0524.0256 1.7747.207 2.2138.6504zm-17.4922-.4995c-.2593.1534-.58.1666-.9572.1666h-2.355v-1.8164h2.387c.3452 0 .6906.0073.9252.146.2512.131.4014.3815.4014.7275 0 .3461-.1502.6249-.4014.7763zm1.1707 1.0065c.4315.1588.7843.4434.9496.679.2738.3949.3134.7634.3212 1.4762v1.6033h-1.9462v-1.0118c0-.4866.047-1.207-.3133-1.5831-.2833-.2897-.715-.359-1.4222-.359h-2.0717v2.9539h-1.9479v-8.0876h4.4755c.9814 0 1.6962.0431 2.3325.3816.6118.3685.9966.8734.9966 1.796-.0003 1.2909-.8638 1.9496-1.3741 2.1515zm2.4489-4.3291h6.47v1.6725h-4.5394v1.4704h4.4285v1.6501h-4.4285v1.6091l4.5394.0074v1.6781h-6.47zm-13.0791 3.7324h-2.5051v-2.0596h2.5276c.6999 0 1.1857.2843 1.1857.9916 0 .6994-.4633 1.068-1.2082 1.068zm-4.4359 3.6197-2.9763-3.2944 2.9763-3.1898zm-7.6862-.95h-4.7662v-1.6091h4.2559v-1.6501h-4.2559v-1.4704h4.8601l2.1204 2.3569zm15.4115-3.7377c0 2.2466-1.6812 2.7105-3.3757 2.7105h-2.4188v2.7127h-3.7679l-2.387-2.6773-2.4807 2.6773h-7.6786v-8.0876h7.7968l2.385 2.651 2.4658-2.651h6.1942c1.5385 0 3.2669.4246 3.2669 2.6644z"/><path d="m21.6545 23.6243-1.3268-3.2234-1.3192 3.2234zm29.2296-1.2835c-.2664.1612-.5815.1665-.9589.1665h-2.355v-1.7959h2.387c.3379 0 .6904.0151.9193.1458.2515.1178.4071.3685.4071.7149 0 .3533-.148.6377-.3995.7687zm16.8 1.2835-1.3415-3.2234-1.3342 3.2234zm-31.3162 3.489h-1.9873l-.0073-6.3327-2.811 6.3327h-1.702l-2.8183-6.3383v6.3383h-3.9428l-.7448-1.8035h-4.0363l-.7524 1.8035h-2.1055l3.4714-8.0857h2.8802l3.297 7.6555v-7.6555h3.1639l2.5369 5.4852 2.3305-5.4852h3.2275v8.0857zm7.9205 0h-6.4758v-8.0857h6.4758v1.6838h-4.5372v1.4574h4.4284v1.6575h-4.4284v1.6147h4.5372zm9.1307-5.9081c0 1.2892-.863 1.9553-1.366 2.1553.4242.1609.7865.4453.9589.6809.2738.4021.321.7614.321 1.4835v1.5884h-1.9553l-.0073-1.0196c0-.4866.0467-1.1863-.306-1.5753-.2833-.2844-.715-.3461-1.4129-.3461h-2.081v2.941h-1.9384v-8.0857h4.4587c.9907 0 1.7207.0261 2.3474.3873.6132.3612.9809.8885.9809 1.7903zm3.1023 5.9081h-1.978v-8.0857h1.978zm22.9472 0h-2.747l-3.6745-6.0688v6.0688h-3.9479l-.7544-1.8035h-4.0269l-.7319 1.8035h-2.2684c-.9423 0-2.1353-.2078-2.8109-.8943-.6813-.6865-1.0357-1.6164-1.0357-3.0868 0-1.1992.2118-2.2955 1.045-3.1617.6267-.6454 1.6081-.9429 2.944-.9429h1.8767v1.7326h-1.8373c-.7075 0-1.1069.1048-1.4917.4789-.3305.3405-.5573.9841-.5573 1.8316 0 .8663.1727 1.4909.5331 1.8989.2984.32.8407.417 1.351.417h.8706l2.7322-6.3587h2.9046l3.282 7.6479v-7.6479h2.9516l3.4076 5.6312v-5.6312h1.9855zm-64.0309 1.5882h3.3122l.7468-1.796h1.672l.7449 1.796h6.5169v-1.3731l.5817 1.379h3.3831l.5817-1.3994v1.3935h16.1957l-.0075-2.9481h.3133c.2194.0076.2835.0278.2835.389v2.5591h8.3765v-.6863c.6757.361 1.7266.6863 3.1094.6863h3.524l.7542-1.796h1.6719l.7376 1.796h6.7908v-1.706l1.0284 1.706h5.4418v-11.2772h-5.3855v1.3319l-.7542-1.3319h-5.5262v1.3319l-.6925-1.3319h-7.4646c-1.2495 0-2.3478.1739-3.2351.6585v-.6585h-5.1512v.6585c-.5645-.4995-1.3339-.6585-2.1893-.6585h-18.8193l-1.2627 2.9127-1.2968-2.9127h-5.9276v1.3319l-.6512-1.3319h-5.0553l-2.3476 5.3618v5.9154z"/></g></svg>