<svg fill="none" height="60" viewBox="0 0 100 60" width="100" xmlns="http://www.w3.org/2000/svg"><rect fill="#000" height="60" rx="4" width="100"/><g clip-rule="evenodd" fill="#fff" fill-rule="evenodd"><path d="m31.8867 26.9585c.0369 3.8243 3.4989 5.0967 3.5372 5.113-.0291.0903-.5529 1.8138-1.8238 3.5949-1.0985 1.5391-2.2392 3.0731-4.0346 3.1051-1.765.0314-2.3324-1.003-4.3504-1.003-2.0173 0-2.6482.971-4.3187 1.0344-1.7333.0628-3.0537-1.6654-4.1615-3.1993-2.2637-3.1378-3.9936-8.8661-1.6705-12.733 1.154-1.9203 3.2156-3.1365 5.4542-3.1672 1.7022-.0314 3.3093 1.0978 4.3504 1.0978 1.0397 0 2.9929-1.358 5.0459-1.1586.8594.0346 3.2717.3328 4.8207 2.5068-.1255.0746-2.8793 1.6118-2.8489 4.8091zm-3.3173-9.3919c.9201-1.0684 1.5404-2.5552 1.3713-4.0349-1.3271.051-2.9316.8474-3.8827 1.9152-.8535.9454-1.5999 2.4584-1.3984 3.9093 1.4789.1098 2.9896-.7205 3.9098-1.7896z"/><path d="m41.8916 15.7377c.6824-.1137 1.4343-.2158 2.2577-.3069.8227-.0911 1.7276-.1364 2.7161-.1364 1.4109 0 2.6273.1648 3.6498.4944 1.0233.3296 1.8634.8013 2.521 1.4152.5648.5454 1.0065 1.193 1.3233 1.9432.3168.7503.4746 1.6143.4746 2.592 0 1.182-.2166 2.2166-.6517 3.1032-.4344.8866-1.0279 1.631-1.7804 2.2333-.7533.6023-1.6462 1.0508-2.6808 1.3468-1.0352.2953-2.1634.4433-3.3865.4433-1.1047 0-2.0331-.0795-2.7849-.2385v9.8213h-1.6582zm1.6582 11.4582c.3996.1131.8461.1926 1.34.2378.4939.0453 1.0225.0679 1.5866.0679 2.116 0 3.7561-.4776 4.9197-1.432 1.1636-.9545 1.7457-2.3529 1.7457-4.194 0-.8866-.1524-1.6602-.4578-2.3193-.3061-.6598-.7405-1.1994-1.3046-1.6201s-1.2344-.7386-2.0104-.9551c-.7766-.2159-1.6347-.3238-2.5758-.3238-.7519 0-1.3988.0285-1.9395.0853-.5407.0569-.9758.1196-1.3046.1874v10.2659z"/><path d="m68.0198 34.5615c0 .6592.0113 1.319.0347 1.9781.0234.6592.0936 1.2951.2119 1.909h-1.5519l-.2466-2.3187h-.0715c-.2112.3186-.4819.6365-.8107.9545-.3289.3179-.7112.6081-1.1456.8698-.4351.2617-.929.4717-1.4817.6307-.5527.1583-1.1576.2385-1.8159.2385-.8227 0-1.5465-.1312-2.1701-.3916-.6229-.2618-1.1342-.603-1.5338-1.023-.3997-.4213-.6991-.9041-.8989-1.4495-.1999-.5454-.2995-1.0908-.2995-1.6369 0-1.9322.8401-3.4211 2.521-4.4673 1.6816-1.0462 4.2153-1.5458 7.6017-1.5005v-.4434c0-.4323-.0414-.9273-.1236-1.4843-.0829-.5571-.2647-1.0857-.5474-1.5852-.282-.4995-.7051-.9202-1.2691-1.2608-.5641-.3412-1.3287-.5118-2.2925-.5118-.7291 0-1.4516.1079-2.1687.3238-.7172.2158-1.3695.5169-1.9569.9034l-.5294-1.1936c.7519-.4995 1.5285-.8575 2.3272-1.0734.8-.2158 1.6341-.3237 2.5043-.3237 1.1756 0 2.134.1932 2.8745.5796.7405.3865 1.3227.8866 1.7457 1.4999.4231.6139.7118 1.3015.8642 2.0634s.2299 1.518.2299 2.2676v6.4454zm-1.6575-4.8764c-.8943-.0232-1.8293.011-2.8051.1021-.9751.0905-1.8747.2902-2.6974.5965-.8234.307-1.5044.7561-2.0451 1.3474s-.8114 1.3751-.8114 2.3529c0 1.1586.3409 2.0117 1.0233 2.5571.681.5454 1.4449.8187 2.2917.8187.6817 0 1.2932-.0904 1.8339-.2733.5407-.1822 1.0099-.4265 1.4102-.7328.4004-.3063.7345-.6534 1.0052-1.0398.2714-.3871.4765-.7839.6182-1.1942.1177-.455.1771-.7845.1771-.99v-3.5446z"/><path d="m71.2615 22.0797 4.3014 10.6395c.236.5913.4592 1.1994.6711 1.8249.2118.6243.3996 1.1994.564 1.7215h.0709c.1651-.4995.3522-1.0624.5641-1.6879.2118-.6249.4471-1.2672.7051-1.9277l4.0214-10.5709h1.7624l-4.9009 12.0042c-.4946 1.2725-.9585 2.4273-1.3935 3.4612-.4345 1.0346-.8762 1.9665-1.3227 2.7962-.4471.8298-.8989 1.5626-1.3587 2.1998-.4578.6358-.9705 1.1935-1.5339 1.6705-.6576.568-1.2638.9835-1.8165 1.2452-.5521.2617-.9223.4265-1.1108.4944l-.5654-1.3299c.4237-.1823.8942-.4207 1.4115-.7161.5173-.2959 1.0232-.6817 1.5165-1.1593.4237-.409.8882-.9486 1.3935-1.6201.5052-.6701.9577-1.483 1.358-2.4382.1411-.3638.2119-.6029.2119-.7166 0-.1583-.0702-.3975-.2119-.716l-6.1019-15.1753h1.7644z"/></g></svg>