<svg fill="none" height="60" viewBox="0 0 100 60" width="100" xmlns="http://www.w3.org/2000/svg"><rect fill="#00457c" height="60" rx="4" width="100"/><g clip-rule="evenodd" fill="#fff" fill-rule="evenodd"><path d="m78.4262 21.9938-2.0168 12.8317c-.0393.2484.1527.4733.4043.4733h2.0288c.3358 0 .6222-.2445.6741-.5766l1.9889-12.6011c.0393-.2484-.1527-.4733-.4049-.4733h-2.2695c-.2022 0-.3739.1464-.4049.346z"/><path d="m53.1345 26.193h-2.3652c-.2262 0-.4379.1122-.5646.2997l-3.263 4.8053-1.3826-4.6177c-.0868-.289-.3529-.4873-.6545-.4873h-2.3247c-.2807 0-.4784.2763-.3877.5418l2.6041 7.645-2.4495 3.4563c-.192.2712.0019.6463.3345.6463h2.3627c.2237 0 .4334-.1096.5614-.2933l7.8656-11.353c.1881-.2718-.0057-.6431-.3365-.6431z"/><path d="m72.3727 30.7734c-.2275 1.3445-1.2945 2.2474-2.6561 2.2474-.6824 0-1.2292-.2198-1.5802-.6355-.3485-.4118-.479-.9992-.3688-1.6524.2116-1.3331 1.2964-2.2645 2.6371-2.2645.6684 0 1.2108.2217 1.5688.6412.3605.4226.5024 1.0131.3992 1.6638zm3.2795-4.5803h-2.3532c-.2015 0-.3732.1464-.4049.346l-.1033.6576-.1647-.2382c-.5094-.7394-1.6455-.9872-2.7796-.9872-2.5997 0-4.8205 1.9706-5.2526 4.7337-.2249 1.3787.0944 2.696.8763 3.6154.7178.8446 1.7424 1.1962 2.9633 1.1962 2.096 0 3.258-1.3458 3.258-1.3458l-.1051.6539c-.0393.2484.1527.4733.4048.4733h2.1188c.3365 0 .6222-.2439.6748-.5759l1.2723-8.0557c.0393-.2484-.1534-.4733-.4049-.4733z"/><path d="m37.3219 30.7734c-.2275 1.3445-1.2945 2.2474-2.6561 2.2474-.6824 0-1.2292-.2198-1.5802-.6355-.3479-.4118-.479-.9992-.3688-1.6524.2117-1.3331 1.2964-2.2645 2.6371-2.2645.6685 0 1.2108.2217 1.5688.6412.3605.4226.5025 1.0131.3992 1.6638zm3.2795-4.5803h-2.3532c-.2015 0-.3732.1464-.4049.346l-.1032.6576-.1641-.2382c-.5101-.7394-1.6461-.9872-2.7803-.9872-2.5997 0-4.8205 1.9706-5.2526 4.7337-.2249 1.3787.0944 2.696.8763 3.6154.7179.8446 1.7424 1.1962 2.9634 1.1962 2.0959 0 3.258-1.3458 3.258-1.3458l-.1052.6539c-.0393.2484.1527.4733.4049.4733h2.1187c.3365 0 .6222-.2439.6748-.5759l1.2723-8.0557c.0393-.2484-.1533-.4733-.4049-.4733z"/><path d="m26.4802 26.2493c-.2686 1.764-1.6157 1.764-2.919 1.764h-.7413l.5202-3.2935c.031-.1989.2027-.3453.4042-.3453h.3403c.887 0 1.7247 0 2.1568.505.2585.3022.3364.7508.2388 1.3698zm-.567-4.6025h-4.9143c-.3364 0-.6222.2446-.6748.5766l-1.987 12.6011c-.0392.2484.1527.4734.4043.4734h2.3469c.3358 0 .6215-.2446.6741-.576l.5367-3.3999c.0519-.332.3383-.5766.6741-.5766h1.5549c3.2371 0 5.1056-1.5663 5.5935-4.6716.2198-1.3572.0088-2.4241-.6267-3.1712-.6988-.8211-1.9375-1.2558-3.5817-1.2558z"/><path d="m61.531 26.2493c-.2686 1.764-1.6157 1.764-2.919 1.764h-.7413l.5202-3.2935c.031-.1989.2027-.3453.4042-.3453h.3402c.8871 0 1.7247 0 2.1568.505.2585.3022.3365.7508.2389 1.3698zm-.5671-4.6025h-4.9142c-.3365 0-.6222.2446-.6748.5766l-1.987 12.6011c-.0393.2484.1533.4734.4043.4734h2.5217c.2351 0 .4353-.1711.472-.403l.5639-3.5729c.052-.332.3384-.5766.6742-.5766h1.5549c3.2371 0 5.1056-1.5663 5.5934-4.6716.2199-1.3572.0089-2.4241-.6266-3.1712-.6989-.8211-1.9376-1.2558-3.5818-1.2558z"/></g></svg>