<svg fill="none" height="164" viewBox="0 0 683 164" width="683" xmlns="http://www.w3.org/2000/svg"><g fill="#5433eb"><path clip-rule="evenodd" d="m454.942 0c-13.767 0-24.927 11.1602-24.927 24.927v113.368c0 13.767 11.16 24.927 24.927 24.927h203.13c13.767 0 24.927-11.16 24.927-24.927v-113.368c0-13.7668-11.16-24.927-24.927-24.927zm35.081 113.902v-28.7359h18.077c16.516 0 25.299-9.2604 25.299-23.2941s-8.783-22.4349-25.299-22.4349h-29.724v74.4649zm0-63.3906h15.404c10.692 0 15.943 4.3915 15.943 11.7425s-5.06 11.7425-15.466 11.7425h-15.881zm63.91 64.9176c8.878 0 14.702-3.914 17.375-10.597.763 7.447 5.25 11.266 14.988 8.688l.095-7.924c-3.914.382-4.677-1.05-4.677-5.155v-19.4755c0-11.4561-7.542-18.2343-21.481-18.2343-13.747 0-21.671 6.8737-21.671 18.5207h10.693c0-5.5371 3.914-8.8785 10.787-8.8785 7.256 0 10.597 3.1505 10.502 8.5921v2.4822l-12.315 1.3365c-13.843 1.5275-21.481 6.7782-21.481 15.9428 0 7.542 5.347 14.702 17.185 14.702zm2.386-8.592c-6.014 0-8.401-3.246-8.401-6.492 0-4.3911 4.964-6.3959 14.702-7.5415l7.637-.8592c-.477 8.4007-6.109 14.8927-13.938 14.8927zm65.435 10.788c-4.869 11.838-12.697 15.37-24.917 15.37h-5.251v-9.737h5.633c6.683 0 9.929-2.101 13.461-8.115l-21.671-50.8843h12.029l15.466 37.1373 13.747-37.1373h11.742z" fill-rule="evenodd"/><path d="m57.3945 71.7445c-15.9474-3.4593-23.0518-4.813-23.0518-10.9583 0-5.7799 4.8079-8.6592 14.4235-8.6592 8.4566 0 14.6381 3.6958 19.1883 10.9368.3434.5587 1.0517.7521 1.6312.4513l17.9435-9.0675c.6439-.3223.88-1.1388.5151-1.7619-7.4478-12.9136-21.2059-19.9828-39.321-19.9828-23.803 0-38.5913 11.7318-38.5913 30.3824 0 19.8109 18.0078 24.8174 33.9766 28.2768s23.0947 4.813 23.0947 10.9579c0 6.146-5.1942 9.046-15.561 9.046-9.5727 0-16.6771-4.383-20.9698-12.8918-.322-.6231-1.0732-.8809-1.6956-.5586l-17.9005 8.8744c-.6225.322-.88 1.074-.5581 1.719 7.1044 14.288 21.6781 22.324 41.1454 22.324 24.7903 0 39.7718-11.538 39.7718-30.769 0-19.2305-18.0937-24.8171-34.041-28.2765z"/><path d="m153.551 32.7032c-10.174 0-19.167 3.6097-25.627 10.0343-.408.3868-1.074.1075-1.074-.4512v-41.01845c0-.709069-.558-1.26772793-1.266-1.26772793h-22.451c-.708 0-1.266.55865893-1.266 1.26772793v127.31015c0 .709.558 1.267 1.266 1.267h22.451c.708 0 1.266-.558 1.266-1.267v-55.8448c0-10.7864 8.264-19.0589 19.403-19.0589 11.14 0 19.21 8.1006 19.21 19.0589v55.8448c0 .709.558 1.267 1.266 1.267h22.451c.709 0 1.267-.558 1.267-1.267v-55.8448c0-23.4637-15.368-40.0086-36.896-40.0086z"/><path d="m235.991 29.0505c-12.191 0-23.61 3.7388-31.809 9.132-.558.3652-.751 1.1173-.408 1.6974l9.895 16.9102c.365.6016 1.137.8165 1.738.4512 6.225-3.7602 13.351-5.7155 20.627-5.6725 19.596 0 33.998 13.8375 33.998 32.1229 0 15.578-11.526 27.1163-26.143 27.1163-11.912 0-20.175-6.94-20.175-16.7382 0-5.608 2.382-10.2062 8.585-13.4508.644-.3437.88-1.1388.494-1.7619l-9.337-15.8143c-.3-.5157-.944-.7521-1.524-.5372-12.513 4.6412-21.291 15.8143-21.291 30.8122 0 22.6902 18.05 39.6222 43.227 39.6222 29.405 0 50.546-20.391 50.546-49.6351 0-31.3493-24.597-54.2544-58.423-54.2544z"/><path d="m360.069 32.5311c-11.355 0-21.485 4.19-28.89 11.5815-.408.4082-1.073.1074-1.073-.4513v-8.8955c0-.7091-.558-1.2678-1.267-1.2678h-21.871c-.708 0-1.266.5587-1.266 1.2678v127.1162c0 .709.558 1.268 1.266 1.268h22.451c.708 0 1.266-.559 1.266-1.268v-41.684c0-.559.666-.838 1.073-.473 7.384 6.876 17.15 10.894 28.332 10.894 26.336 0 46.876-21.337 46.876-49.0548 0-27.7181-20.562-49.0546-46.876-49.0546zm-4.229 76.5579c-14.981 0-26.335-11.9253-26.335-27.6967s11.332-27.6966 26.335-27.6966 26.315 11.7318 26.315 27.6966c0 15.9647-11.161 27.6967-26.336 27.6967z"/></g></svg>