<svg fill="none" height="60" viewBox="0 0 100 60" width="100" xmlns="http://www.w3.org/2000/svg"><rect fill="#26337a" height="60" rx="4" width="100"/><g clip-rule="evenodd" fill-rule="evenodd"><path d="m41.4902 39.5467 3.0748-19.074h4.9148l-3.0744 19.074z" fill="#fff"/><path d="m64.233 20.9409c-.9718-.3828-2.5001-.8003-4.4041-.8003-4.8592 0-8.2797 2.5885-8.3081 6.295-.0309 2.7416 2.4409 4.2707 4.3043 5.1819 1.9152.9341 2.5587 1.5319 2.5511 2.3671-.0132 1.2774-1.5287 1.8628-2.9418 1.8628-1.9677 0-3.0132-.2882-4.6295-1.0003l-.6322-.3037-.6873 4.2696c1.146.5313 3.2706.9924 5.4756 1.0166 5.1642 0 8.5198-2.5571 8.5591-6.5152.0177-2.1741-1.2919-3.8219-4.1283-5.1825-1.7176-.8845-2.7717-1.4704-2.7596-2.3656.0011-.7927.8905-1.6414 2.8155-1.6414 1.6077-.026 2.7715.3453 3.6783.7329l.4414.218z" fill="#fff"/><path d="m70.7778 32.7843c.4073-1.0963 1.9579-5.3315 1.9579-5.3315-.0287.0504.4051-1.1048.6533-1.8198l.3317 1.6451s.9431 4.5527 1.1373 5.5062c-.7651 0-3.1205 0-4.0802 0zm6.0634-12.2921h-3.7983c-1.1781 0-2.0599.3375-2.576 1.5811l-7.2989 17.4803h5.1622s.8422-2.3516 1.0333-2.8676c.5631 0 5.5792.0099 6.2951.0099.1473.6656.5985 2.8577.5985 2.8577h4.5618z" fill="#fff"/><path d="m37.3666 20.4888-4.8105 13.0039-.5153-2.6434c-.8964-3.0456-3.687-6.3467-6.8084-8.0008l4.401 16.6817 5.2016-.0031 7.74-19.0383z" fill="#fff"/><path d="m28.0906 20.4756h-7.9258l-.0652.3952c6.1672 1.58 10.2477 5.3938 11.9414 9.9783l-1.7223-8.7642c-.2972-1.2088-1.1607-1.5671-2.2281-1.6093z" fill="#ec982d"/></g></svg>