<svg enableBackground="new 0 0 391.1 89.4" viewBox="0 0 391.1 89.4" xmlns="http://www.w3.org/2000/svg">
	<title>Cart Commerce Logo</title>
	<text fill="#1173a8" fontFamily="Montserrat" fontSize="32" transform="translate(136.39505 54.515213)">Cart Commerce</text>
	<text fill="#1173a8" font-family="Montserrat" font-size="18" transform="translate(169.192413 82.037013)">Shopping Made Simple</text>
	<g transform="matrix(.86956531 0 0 .86956531 445.782608 425)"><path d="m-414.9-404c-1.9 0-3.4 1.5-3.4 3.5 0 1.5 1 2.9 2.4 3.3.3.1.6.2 1 .2 1.9 0 3.4-1.6 3.4-3.5 0-.9-.3-1.7-.9-2.3-.6-.8-1.5-1.2-2.5-1.2z" fill="none"/><path d="m-447.4-404c-1.2 0-2.3.7-2.9 1.7-.3.5-.5 1.1-.5 1.8 0 1.9 1.5 3.5 3.4 3.5 1 0 1.9-.5 2.5-1.2.5-.6.9-1.4.9-2.3 0-2-1.5-3.5-3.4-3.5z" fill="none"/><path d="m-476.9-460.5c-4.1 3.1-7.4 7.4-9.2 12.4-11 4.1-18.2 14.3-18.2 26 0 15.3 12.4 27.7 27.8 27.7h22.1c-1.3-1-2.1-3.2-2.1-5.2 0-.3 0-.8 0-.8h-20c-12.1 0-21.9-9.7-21.9-21.7 0-9.6 6.2-18 15.5-20.8l1.5-.4.5-1.6c1.4-4.7 4.4-8.5 8.3-11.5-.8 0-1.7 0-2.5 0-1.6 0-2.3-2.5-1.8-4.1z" fill="#1173a8"/><path d="m-391.2-449.6c-1.4-18.5-17-33.2-35.9-33.2-12.3 0-23.8 6.3-30.3 16.6-.2 0-.5 0-.7 0 .3 1.1.6 2.2.9 3.4.5 2.1 1.1 2.6 3.2 2.7l.8-1.3c5.3-9.5 15.2-15.3 26.1-15.3 16.6 0 29.9 13.5 29.9 30v3h3.1c12 0 21.9 9.7 21.9 21.7s-9.7 21.7-21.8 21.7h-10.9v.8c0 2-.8 4.2-2.1 5.2h12.9c15.3 0 27.8-12.4 27.8-27.7-.1-14.4-11-26.1-24.9-27.6z" fill="#1173a8"/><path d="m-410.3-406.7c-.8-.6-1.7-1.1-2.7-1.4-.6-.2-1.3-.3-1.9-.3-.5 0-1.1.1-1.6.2-1.9.4-3.6 1.5-4.7 3.1-1.4 2-2.2 2.6-3.6 2.6-4.2 0-8.5 0-12.7 0-1.6 0-2.3-.6-3.5-2.5-.9-1.5-2.4-2.6-4.1-3.1-.1 0-.2 0-.3-.1-1.6-.5-2.3-1-2.7-2.6-.2-.6-.3-1.3-.5-1.9 0-.2-.1-.3-.1-.5-.1-.4-.2-.8-.2-1-.1-1 .5-1.3 2.2-1.3h3.1 25.7 4.3c1.1 0 1.9 0 2.5-.2 1-.3 1.5-.9 1.8-2 .2-.7.3-1.2.4-1.6.1-1.1-.6-1.2-2.3-1.2h-9.1-21-5.3c-.6 0-1-.3-1.1-.8-.1-.6.2-1.2 1-1.2h1.8 28 4.5 1.9c2.2 0 2.5-.4 3-2.1.1-.3.1-.4.1-.7.2-1.2-.3-1.2-2.1-1.2h-38.7c-.6 0-1-.6-1.1-1.1s.1-1.4.7-1.6c.1 0 .2-.4.3-.4h39.3c2.2 0 2.5 0 3-1.7.1-.2.1-.1.1-.2.2-1.2-.3-1-2.3-1h-.6-40.9c-.6 0-1-.8-1.1-1.2-.1-.6.2-1.8 1-1.8h2.8 39.5c2.1 0 2.5-.1 3-1.9 0-.2.1-.5.1-.6.2-1.1-.2-1.5-2.2-1.5h-.6-44c-.6 0-.9-.2-1.1-.7-.2-.7.2-1.3 1-1.3h2.6 42.6c2.3 0 2.7-.2 3.1-2.1.1-.5.1-1 .1-1.3 0-1.2-.8-1.6-2.6-1.6-.1 0-.1 0-.2 0-16.2 0-32.5 0-48.7 0-1.4 0-2.1-.1-2.6-.8-.3-.4-.5-1-.7-1.8-.9-3.5-1.7-6.8-2.6-10.2-.5-1.9-1-2.2-2.9-2.2-4.2 0-8.4 0-12.5 0-.7 0-1.1.3-1.3 1-.5 1.6.2 4 1.8 4h2.5 7.7c1.9 0 2.2.4 2.6 2.4.2 1 .5 2 .7 3 2.7 11 5.1 21.2 7.8 32 .7 2.8 1.4 5.5 2.2 8.4.2.6.2 1 .3 1.5.1 1.4-.3 2-1.3 3.1-1.4 1.4-2.3 3.4-2.3 5.6v.3c0 .7.1 1.4.3 2.1 1 3.2 3.9 5.4 7.3 5.4 2.8 0 5.3-1.4 6.6-3.7.9-1.6 1.7-2 3.2-2h12.7c1.5 0 2.2.2 2.9 1.2.1.2.3.3.4.6.7 1.2 1.7 2.2 2.9 2.9 1.1.7 2.4 1 3.8 1 1.7 0 3.3-.6 4.6-1.6 1.8-1.4 2.9-3.5 3-5.9 0-.1 0-.2 0-.3-.1-2.5-1.2-4.7-3-6.2zm-34.6 8.4c-.6.7-1.5 1.2-2.5 1.2-1.9 0-3.4-1.6-3.4-3.5 0-.7.2-1.3.5-1.8.6-1 1.7-1.7 2.9-1.7 1.9 0 3.4 1.5 3.4 3.5 0 .9-.3 1.7-.9 2.3zm30 1.2c-.4 0-.7-.1-1-.2-1.4-.4-2.4-1.8-2.4-3.3 0-1.9 1.5-3.5 3.4-3.5 1 0 1.9.5 2.5 1.2.5.6.9 1.4.9 2.3 0 1.9-1.5 3.5-3.4 3.5z" fill="#d54140"/></g>
</svg>
